<svg id="Layer_1" data-name="Layer 1" xmlns="http://www.w3.org/2000/svg" viewBox="0 0 1689.5 2376.24"><defs><style>.cls-1{fill:#1d1d1b;}.cls-1,.cls-3{stroke:#1d1d1b;}.cls-1,.cls-2,.cls-3{stroke-miterlimit:10;}.cls-2{fill:#fff;stroke:#fff;}</style></defs><path class="cls-1" d="M842.76,346.45S734.76,542.08,740.87,644s-8.15,175.26,24.45,246.58,57.06,110,57.06,110-95.78-67.25-112.08-161-24.45-148.76-24.45-148.76-53,44.84-16.3,179.33S738.83,1021,769.4,1049.5s110,67.25,110,67.25-191.55,28.53-236.39-79.48,0,69.29,0,69.29,65.21,116.15,197.67,103.93,93.74-51,132.46-12.23,169.14,132.46,203.78,156.91,79.48,26.49,89.67,79.48,0,83.55,0,83.55,16.3-51-48.91-75.4-146.72-57.06-169.14-69.29-42.79-32.6-34.64,8.15-2,48.91,12.22,97.82,50.95,126.34,75.4,138.57,146.73,30.57,156.92,51,14.26,6.11,28.52,50.94,36.69,12.23,28.53,85.59-67.24,305.67-89.66,379-67.25,118.2-36.68,181.37,110,197.67,154.87,236.39,130.42,173.21,134.5,93.73,0-1206.38,0-1206.38l-27.33-2s9-46.87-82.71-110-110,8.15-146.73-91.7S1126,1076,1126,1076s46.87,99.85,32.6,136.53-106.87-59.09-106.87-59.09-105.06-73.36-105.06-169.14S963,754,999.67,703.07s32.61-73.36,32.61-73.36l-28.53,26.49s-57.06,50.95-79.48,112.08,2,181.37-28.53,197.67-55-8.15-55-34.64-22.41-132.46-6.11-195.63,40.76-140.61,40.76-140.61-48.91,10.19-55,48.9S800,733.64,800,733.64s-14.27-53,0-126.35,30.56-120.23,40.75-169.14S842.76,346.45,842.76,346.45Z" transform="translate(-622.63 -345)"/><path class="cls-1" d="M2092,346.45S2200,542.08,2193.89,644s8.15,175.26-24.45,246.58-57.06,110-57.06,110,95.78-67.25,112.08-161,24.45-148.76,24.45-148.76,53,44.84,16.3,179.33-69.28,150.8-99.85,179.33-110,67.25-110,67.25,191.55,28.53,236.39-79.48,0,69.29,0,69.29S2226.5,1222.71,2094,1210.49s-93.74-51-132.46-12.23-169.14,132.46-203.78,156.91-79.48,26.49-89.67,79.48,0,83.55,0,83.55-16.3-51,48.91-75.4,146.72-57.06,169.14-69.29,42.79-32.6,34.64,8.15,2,48.91-12.22,97.82-50.95,126.34-75.4,138.57-146.73,30.57-156.91,51-14.27,6.11-28.53,50.94-36.68,12.23-28.53,85.59,67.24,305.67,89.66,379,67.25,118.2,36.68,181.37-110,197.67-154.87,236.39-130.42,173.21-134.5,93.73,0-1206.38,0-1206.38l27.33-2s-9-46.87,82.71-110,110,8.15,146.73-91.7,95.77-209.9,95.77-209.9-46.87,99.85-32.6,136.53S1883,1153.43,1883,1153.43s105.06-73.36,105.06-169.14-16.3-230.27-53-281.22-32.61-73.36-32.61-73.36L1931,656.2s57.06,50.95,79.48,112.08-2,181.37,28.53,197.67,55-8.15,55-34.64,22.41-132.46,6.11-195.63-40.76-140.61-40.76-140.61,48.91,10.19,55,48.9,20.37,89.67,20.37,89.67,14.27-53,0-126.35S2104.23,487.06,2094,438.15,2092,346.45,2092,346.45Z" transform="translate(-622.63 -345)"/><path class="cls-2" d="M1337.33,1565.17s0,16.25,12.64,19.86,36.11,0,36.11,0,12.64,7,14.45-9.12S1337.33,1565.17,1337.33,1565.17Z" transform="translate(-622.63 -345)"/><path class="cls-2" d="M1590.18,1563.47s0,16.25-12.64,19.86-36.11,0-36.11,0-12.64,7-14.45-9.13S1590.18,1563.47,1590.18,1563.47Z" transform="translate(-622.63 -345)"/><path class="cls-2" d="M1463.76,1635.13s-15.61-2.34-23.42,5.46,0,15.61,0,15.61,14.66-7,17.47,7.81,6,27.31,6,27.31Z" transform="translate(-622.63 -345)"/><path class="cls-2" d="M1466.93,1635.13s15.61-2.34,23.41,5.46,0,15.61,0,15.61-14.65-7-17.47,7.81-5.94,27.31-5.94,27.31Z" transform="translate(-622.63 -345)"/><polygon class="cls-3" points="620.19 286.94 507.89 419.39 708.49 419.39 620.19 286.94"/><polygon class="cls-3" points="643.22 276.38 730.56 409.8 826.54 276.38 643.22 276.38"/><polygon class="cls-3" points="845.74 286.94 757.44 419.39 935.96 419.39 845.74 286.94"/><polygon class="cls-3" points="868.77 276.38 956.12 409.8 1044.42 276.38 868.77 276.38"/><polygon class="cls-3" points="1068.41 286.94 980.11 419.39 1180.71 419.39 1068.41 286.94"/><polygon class="cls-3" points="1180.71 445.31 967.63 445.31 868.77 822.51 1180.71 445.31"/><polygon class="cls-3" points="941.72 445.31 745.92 445.31 843.82 822.51 941.72 445.31"/><polygon class="cls-3" points="822.71 822.51 721.93 445.31 507.89 445.31 822.71 822.51"/></svg>